<mxfile host="app.diagrams.net" modified="2021-04-24T20:07:21.281Z" agent="5.0 (Windows NT 10.0; Win64; x64) AppleWebKit/537.36 (KHTML, like Gecko) Chrome/89.0.4389.128 Safari/537.36" etag="3KCq6gNOokuW2y4tbuEL" version="14.6.6" type="github">
  <diagram id="C5RBs43oDa-KdzZeNtuy" name="Page-1">
    <mxGraphModel dx="764" dy="332" grid="1" gridSize="10" guides="1" tooltips="1" connect="1" arrows="1" fold="1" page="1" pageScale="1" pageWidth="827" pageHeight="1169" math="0" shadow="0">
      <root>
        <mxCell id="WIyWlLk6GJQsqaUBKTNV-0" />
        <mxCell id="WIyWlLk6GJQsqaUBKTNV-1" parent="WIyWlLk6GJQsqaUBKTNV-0" />
        <mxCell id="JfCPqrpS5iiKMBhqP7LI-0" style="edgeStyle=orthogonalEdgeStyle;rounded=0;orthogonalLoop=1;jettySize=auto;html=1;exitX=0.5;exitY=1;exitDx=0;exitDy=0;entryX=0.5;entryY=0;entryDx=0;entryDy=0;" edge="1" parent="WIyWlLk6GJQsqaUBKTNV-1" source="JfCPqrpS5iiKMBhqP7LI-1" target="JfCPqrpS5iiKMBhqP7LI-4">
          <mxGeometry relative="1" as="geometry" />
        </mxCell>
        <mxCell id="JfCPqrpS5iiKMBhqP7LI-1" value="Rent a DVD" style="rounded=1;whiteSpace=wrap;html=1;fontSize=12;glass=0;strokeWidth=1;shadow=0;" vertex="1" parent="WIyWlLk6GJQsqaUBKTNV-1">
          <mxGeometry x="900" y="1490" width="120" height="40" as="geometry" />
        </mxCell>
        <mxCell id="JfCPqrpS5iiKMBhqP7LI-2" style="edgeStyle=orthogonalEdgeStyle;rounded=0;orthogonalLoop=1;jettySize=auto;html=1;exitX=1;exitY=0.5;exitDx=0;exitDy=0;entryX=0.5;entryY=0;entryDx=0;entryDy=0;" edge="1" parent="WIyWlLk6GJQsqaUBKTNV-1" source="JfCPqrpS5iiKMBhqP7LI-4" target="JfCPqrpS5iiKMBhqP7LI-5">
          <mxGeometry relative="1" as="geometry" />
        </mxCell>
        <mxCell id="JfCPqrpS5iiKMBhqP7LI-3" style="edgeStyle=orthogonalEdgeStyle;rounded=0;orthogonalLoop=1;jettySize=auto;html=1;exitX=0;exitY=0.5;exitDx=0;exitDy=0;" edge="1" parent="WIyWlLk6GJQsqaUBKTNV-1" source="JfCPqrpS5iiKMBhqP7LI-4" target="JfCPqrpS5iiKMBhqP7LI-27">
          <mxGeometry relative="1" as="geometry">
            <Array as="points">
              <mxPoint x="800" y="1710" />
            </Array>
          </mxGeometry>
        </mxCell>
        <mxCell id="JfCPqrpS5iiKMBhqP7LI-4" value="&lt;font style=&quot;font-size: 11px&quot;&gt;Registered User&lt;/font&gt;" style="rhombus;whiteSpace=wrap;html=1;shadow=0;fontFamily=Helvetica;fontSize=12;align=center;strokeWidth=1;spacing=6;spacingTop=-4;" vertex="1" parent="WIyWlLk6GJQsqaUBKTNV-1">
          <mxGeometry x="910" y="1670" width="100" height="80" as="geometry" />
        </mxCell>
        <mxCell id="JfCPqrpS5iiKMBhqP7LI-5" value="Sign Up" style="rounded=1;whiteSpace=wrap;html=1;fontSize=12;glass=0;strokeWidth=1;shadow=0;" vertex="1" parent="WIyWlLk6GJQsqaUBKTNV-1">
          <mxGeometry x="1080" y="1736" width="120" height="40" as="geometry" />
        </mxCell>
        <mxCell id="JfCPqrpS5iiKMBhqP7LI-6" value="" style="endArrow=classic;html=1;exitX=0.5;exitY=1;exitDx=0;exitDy=0;exitPerimeter=0;entryX=0.5;entryY=0;entryDx=0;entryDy=0;" edge="1" parent="WIyWlLk6GJQsqaUBKTNV-1" target="JfCPqrpS5iiKMBhqP7LI-1">
          <mxGeometry width="50" height="50" relative="1" as="geometry">
            <mxPoint x="960" y="1440" as="sourcePoint" />
            <mxPoint x="1180" y="1450" as="targetPoint" />
          </mxGeometry>
        </mxCell>
        <mxCell id="JfCPqrpS5iiKMBhqP7LI-7" value="" style="endArrow=classic;html=1;exitX=1;exitY=0.5;exitDx=0;exitDy=0;entryX=0;entryY=0.5;entryDx=0;entryDy=0;" edge="1" parent="WIyWlLk6GJQsqaUBKTNV-1" source="JfCPqrpS5iiKMBhqP7LI-5" target="JfCPqrpS5iiKMBhqP7LI-9">
          <mxGeometry width="50" height="50" relative="1" as="geometry">
            <mxPoint x="1054" y="1856" as="sourcePoint" />
            <mxPoint x="1334" y="1796" as="targetPoint" />
          </mxGeometry>
        </mxCell>
        <mxCell id="JfCPqrpS5iiKMBhqP7LI-8" style="edgeStyle=orthogonalEdgeStyle;rounded=0;orthogonalLoop=1;jettySize=auto;html=1;exitX=1;exitY=0.5;exitDx=0;exitDy=0;strokeColor=#000000;" edge="1" parent="WIyWlLk6GJQsqaUBKTNV-1" source="JfCPqrpS5iiKMBhqP7LI-9" target="JfCPqrpS5iiKMBhqP7LI-13">
          <mxGeometry relative="1" as="geometry">
            <mxPoint x="1574" y="1796.5882352941176" as="targetPoint" />
          </mxGeometry>
        </mxCell>
        <mxCell id="JfCPqrpS5iiKMBhqP7LI-9" value="Choose new username" style="rounded=1;whiteSpace=wrap;html=1;fillColor=#FFFFFF;" vertex="1" parent="WIyWlLk6GJQsqaUBKTNV-1">
          <mxGeometry x="1220" y="1736" width="120" height="40" as="geometry" />
        </mxCell>
        <mxCell id="JfCPqrpS5iiKMBhqP7LI-10" value="&lt;font style=&quot;font-size: 10px&quot;&gt;No&lt;/font&gt;" style="text;html=1;strokeColor=none;fillColor=none;align=center;verticalAlign=middle;whiteSpace=wrap;rounded=0;" vertex="1" parent="WIyWlLk6GJQsqaUBKTNV-1">
          <mxGeometry x="1050" y="1690" width="40" height="20" as="geometry" />
        </mxCell>
        <mxCell id="JfCPqrpS5iiKMBhqP7LI-11" style="edgeStyle=orthogonalEdgeStyle;rounded=0;orthogonalLoop=1;jettySize=auto;html=1;exitX=0.5;exitY=1;exitDx=0;exitDy=0;strokeColor=#000000;" edge="1" parent="WIyWlLk6GJQsqaUBKTNV-1" source="JfCPqrpS5iiKMBhqP7LI-13">
          <mxGeometry relative="1" as="geometry">
            <mxPoint x="1430" y="1856" as="targetPoint" />
          </mxGeometry>
        </mxCell>
        <mxCell id="JfCPqrpS5iiKMBhqP7LI-12" style="edgeStyle=orthogonalEdgeStyle;rounded=0;orthogonalLoop=1;jettySize=auto;html=1;exitX=1;exitY=0.5;exitDx=0;exitDy=0;entryX=0.889;entryY=0.6;entryDx=0;entryDy=0;entryPerimeter=0;" edge="1" parent="WIyWlLk6GJQsqaUBKTNV-1" source="JfCPqrpS5iiKMBhqP7LI-13" target="JfCPqrpS5iiKMBhqP7LI-64">
          <mxGeometry relative="1" as="geometry">
            <Array as="points">
              <mxPoint x="1530" y="1756" />
              <mxPoint x="1530" y="1646" />
            </Array>
          </mxGeometry>
        </mxCell>
        <mxCell id="JfCPqrpS5iiKMBhqP7LI-13" value="Username Available" style="rhombus;whiteSpace=wrap;html=1;" vertex="1" parent="WIyWlLk6GJQsqaUBKTNV-1">
          <mxGeometry x="1390" y="1713.6399999999999" width="80" height="84.71" as="geometry" />
        </mxCell>
        <mxCell id="JfCPqrpS5iiKMBhqP7LI-14" value="&lt;font style=&quot;font-size: 10px&quot;&gt;Yes&lt;/font&gt;" style="text;html=1;strokeColor=none;fillColor=none;align=center;verticalAlign=middle;whiteSpace=wrap;rounded=0;" vertex="1" parent="WIyWlLk6GJQsqaUBKTNV-1">
          <mxGeometry x="1420" y="1798.35" width="40" height="20" as="geometry" />
        </mxCell>
        <mxCell id="JfCPqrpS5iiKMBhqP7LI-15" value="Create Password" style="rounded=1;whiteSpace=wrap;html=1;fillColor=#FFFFFF;" vertex="1" parent="WIyWlLk6GJQsqaUBKTNV-1">
          <mxGeometry x="1370" y="1856" width="120" height="40" as="geometry" />
        </mxCell>
        <mxCell id="JfCPqrpS5iiKMBhqP7LI-16" value="" style="endArrow=classic;html=1;strokeColor=#000000;exitX=0.5;exitY=1;exitDx=0;exitDy=0;" edge="1" parent="WIyWlLk6GJQsqaUBKTNV-1" source="JfCPqrpS5iiKMBhqP7LI-23">
          <mxGeometry width="50" height="50" relative="1" as="geometry">
            <mxPoint x="1320" y="1796" as="sourcePoint" />
            <mxPoint x="1430" y="1956" as="targetPoint" />
          </mxGeometry>
        </mxCell>
        <mxCell id="JfCPqrpS5iiKMBhqP7LI-17" style="edgeStyle=orthogonalEdgeStyle;rounded=0;orthogonalLoop=1;jettySize=auto;html=1;exitX=0.5;exitY=1;exitDx=0;exitDy=0;strokeColor=#000000;entryX=0.5;entryY=0;entryDx=0;entryDy=0;" edge="1" parent="WIyWlLk6GJQsqaUBKTNV-1" source="JfCPqrpS5iiKMBhqP7LI-23" target="JfCPqrpS5iiKMBhqP7LI-20">
          <mxGeometry relative="1" as="geometry">
            <mxPoint x="1430.3333333333335" y="1996" as="targetPoint" />
          </mxGeometry>
        </mxCell>
        <mxCell id="JfCPqrpS5iiKMBhqP7LI-18" style="edgeStyle=orthogonalEdgeStyle;rounded=0;orthogonalLoop=1;jettySize=auto;html=1;exitX=0;exitY=0.5;exitDx=0;exitDy=0;strokeColor=#000000;" edge="1" parent="WIyWlLk6GJQsqaUBKTNV-1" source="JfCPqrpS5iiKMBhqP7LI-65">
          <mxGeometry relative="1" as="geometry">
            <mxPoint x="1430" y="1836" as="targetPoint" />
            <Array as="points">
              <mxPoint x="1210" y="1836" />
            </Array>
          </mxGeometry>
        </mxCell>
        <mxCell id="JfCPqrpS5iiKMBhqP7LI-19" style="edgeStyle=orthogonalEdgeStyle;rounded=0;orthogonalLoop=1;jettySize=auto;html=1;exitX=1;exitY=0.5;exitDx=0;exitDy=0;" edge="1" parent="WIyWlLk6GJQsqaUBKTNV-1" source="JfCPqrpS5iiKMBhqP7LI-67">
          <mxGeometry relative="1" as="geometry">
            <mxPoint x="960" y="1570" as="targetPoint" />
            <Array as="points" />
          </mxGeometry>
        </mxCell>
        <mxCell id="JfCPqrpS5iiKMBhqP7LI-20" value="&lt;font style=&quot;font-size: 11px&quot;&gt;Correct password&lt;/font&gt;" style="rhombus;whiteSpace=wrap;html=1;shadow=0;fontFamily=Helvetica;fontSize=12;align=center;strokeWidth=1;spacing=6;spacingTop=-4;" vertex="1" parent="WIyWlLk6GJQsqaUBKTNV-1">
          <mxGeometry x="1380" y="2020" width="100" height="80" as="geometry" />
        </mxCell>
        <mxCell id="JfCPqrpS5iiKMBhqP7LI-21" value="&lt;font style=&quot;font-size: 10px&quot;&gt;No&lt;/font&gt;" style="text;html=1;strokeColor=none;fillColor=none;align=center;verticalAlign=middle;whiteSpace=wrap;rounded=0;" vertex="1" parent="WIyWlLk6GJQsqaUBKTNV-1">
          <mxGeometry x="1330" y="2065" width="40" height="20" as="geometry" />
        </mxCell>
        <mxCell id="JfCPqrpS5iiKMBhqP7LI-22" value="&lt;font style=&quot;font-size: 10px&quot;&gt;No&lt;/font&gt;" style="text;html=1;strokeColor=none;fillColor=none;align=center;verticalAlign=middle;whiteSpace=wrap;rounded=0;" vertex="1" parent="WIyWlLk6GJQsqaUBKTNV-1">
          <mxGeometry x="1480" y="1756" width="40" height="20" as="geometry" />
        </mxCell>
        <mxCell id="JfCPqrpS5iiKMBhqP7LI-23" value="Confirm Password" style="rounded=1;whiteSpace=wrap;html=1;fillColor=#FFFFFF;" vertex="1" parent="WIyWlLk6GJQsqaUBKTNV-1">
          <mxGeometry x="1370" y="1936" width="120" height="40" as="geometry" />
        </mxCell>
        <mxCell id="JfCPqrpS5iiKMBhqP7LI-24" value="" style="endArrow=classic;html=1;strokeColor=#000000;exitX=0.5;exitY=1;exitDx=0;exitDy=0;" edge="1" parent="WIyWlLk6GJQsqaUBKTNV-1" source="JfCPqrpS5iiKMBhqP7LI-15" target="JfCPqrpS5iiKMBhqP7LI-23">
          <mxGeometry width="50" height="50" relative="1" as="geometry">
            <mxPoint x="1430.0000000000002" y="1896" as="sourcePoint" />
            <mxPoint x="1430.0000000000002" y="1956" as="targetPoint" />
          </mxGeometry>
        </mxCell>
        <mxCell id="JfCPqrpS5iiKMBhqP7LI-25" value="Yes" style="text;html=1;strokeColor=none;fillColor=none;align=center;verticalAlign=middle;whiteSpace=wrap;rounded=0;" vertex="1" parent="WIyWlLk6GJQsqaUBKTNV-1">
          <mxGeometry x="1490" y="2060" width="40" height="20" as="geometry" />
        </mxCell>
        <mxCell id="JfCPqrpS5iiKMBhqP7LI-26" style="edgeStyle=orthogonalEdgeStyle;rounded=0;orthogonalLoop=1;jettySize=auto;html=1;exitX=0.5;exitY=1;exitDx=0;exitDy=0;entryX=0.5;entryY=0;entryDx=0;entryDy=0;" edge="1" parent="WIyWlLk6GJQsqaUBKTNV-1" source="JfCPqrpS5iiKMBhqP7LI-27" target="JfCPqrpS5iiKMBhqP7LI-31">
          <mxGeometry relative="1" as="geometry" />
        </mxCell>
        <mxCell id="JfCPqrpS5iiKMBhqP7LI-27" value="Login" style="rounded=1;whiteSpace=wrap;html=1;fontSize=12;glass=0;strokeWidth=1;shadow=0;" vertex="1" parent="WIyWlLk6GJQsqaUBKTNV-1">
          <mxGeometry x="720" y="1736" width="120" height="40" as="geometry" />
        </mxCell>
        <mxCell id="JfCPqrpS5iiKMBhqP7LI-28" value="&lt;span style=&quot;font-size: 10px&quot;&gt;Yes&lt;/span&gt;" style="text;html=1;strokeColor=none;fillColor=none;align=center;verticalAlign=middle;whiteSpace=wrap;rounded=0;" vertex="1" parent="WIyWlLk6GJQsqaUBKTNV-1">
          <mxGeometry x="820" y="1690" width="40" height="20" as="geometry" />
        </mxCell>
        <mxCell id="JfCPqrpS5iiKMBhqP7LI-29" style="edgeStyle=orthogonalEdgeStyle;rounded=0;orthogonalLoop=1;jettySize=auto;html=1;exitX=1;exitY=0.5;exitDx=0;exitDy=0;entryX=0.25;entryY=0;entryDx=0;entryDy=0;" edge="1" parent="WIyWlLk6GJQsqaUBKTNV-1" source="JfCPqrpS5iiKMBhqP7LI-31" target="JfCPqrpS5iiKMBhqP7LI-34">
          <mxGeometry relative="1" as="geometry">
            <Array as="points">
              <mxPoint x="900" y="1841" />
            </Array>
          </mxGeometry>
        </mxCell>
        <mxCell id="JfCPqrpS5iiKMBhqP7LI-30" style="edgeStyle=orthogonalEdgeStyle;rounded=0;orthogonalLoop=1;jettySize=auto;html=1;exitX=0;exitY=0.5;exitDx=0;exitDy=0;entryX=0.443;entryY=1.015;entryDx=0;entryDy=0;entryPerimeter=0;" edge="1" parent="WIyWlLk6GJQsqaUBKTNV-1" source="JfCPqrpS5iiKMBhqP7LI-31" target="JfCPqrpS5iiKMBhqP7LI-71">
          <mxGeometry relative="1" as="geometry" />
        </mxCell>
        <mxCell id="JfCPqrpS5iiKMBhqP7LI-31" value="Correct Login Info" style="rhombus;whiteSpace=wrap;html=1;" vertex="1" parent="WIyWlLk6GJQsqaUBKTNV-1">
          <mxGeometry x="725" y="1798.35" width="110" height="84.71" as="geometry" />
        </mxCell>
        <mxCell id="JfCPqrpS5iiKMBhqP7LI-32" value="&lt;font style=&quot;font-size: 10px&quot;&gt;No&lt;/font&gt;" style="text;html=1;strokeColor=none;fillColor=none;align=center;verticalAlign=middle;whiteSpace=wrap;rounded=0;" vertex="1" parent="WIyWlLk6GJQsqaUBKTNV-1">
          <mxGeometry x="670" y="1838.35" width="40" height="20" as="geometry" />
        </mxCell>
        <mxCell id="JfCPqrpS5iiKMBhqP7LI-33" style="edgeStyle=orthogonalEdgeStyle;rounded=0;orthogonalLoop=1;jettySize=auto;html=1;exitX=0.5;exitY=1;exitDx=0;exitDy=0;entryX=0.5;entryY=0;entryDx=0;entryDy=0;" edge="1" parent="WIyWlLk6GJQsqaUBKTNV-1" source="JfCPqrpS5iiKMBhqP7LI-34" target="JfCPqrpS5iiKMBhqP7LI-38">
          <mxGeometry relative="1" as="geometry" />
        </mxCell>
        <mxCell id="JfCPqrpS5iiKMBhqP7LI-34" value="Choose Movie" style="rounded=1;whiteSpace=wrap;html=1;fontSize=12;glass=0;strokeWidth=1;shadow=0;" vertex="1" parent="WIyWlLk6GJQsqaUBKTNV-1">
          <mxGeometry x="870" y="1856" width="120" height="40" as="geometry" />
        </mxCell>
        <mxCell id="JfCPqrpS5iiKMBhqP7LI-35" value="&lt;span style=&quot;font-size: 10px&quot;&gt;Yes&lt;/span&gt;" style="text;html=1;strokeColor=none;fillColor=none;align=center;verticalAlign=middle;whiteSpace=wrap;rounded=0;" vertex="1" parent="WIyWlLk6GJQsqaUBKTNV-1">
          <mxGeometry x="850" y="1818.35" width="40" height="20" as="geometry" />
        </mxCell>
        <mxCell id="JfCPqrpS5iiKMBhqP7LI-36" style="edgeStyle=orthogonalEdgeStyle;rounded=0;orthogonalLoop=1;jettySize=auto;html=1;exitX=0;exitY=0.5;exitDx=0;exitDy=0;entryX=1;entryY=0.5;entryDx=0;entryDy=0;" edge="1" parent="WIyWlLk6GJQsqaUBKTNV-1" source="JfCPqrpS5iiKMBhqP7LI-38" target="JfCPqrpS5iiKMBhqP7LI-41">
          <mxGeometry relative="1" as="geometry" />
        </mxCell>
        <mxCell id="JfCPqrpS5iiKMBhqP7LI-37" style="edgeStyle=orthogonalEdgeStyle;rounded=0;orthogonalLoop=1;jettySize=auto;html=1;exitX=1;exitY=0.5;exitDx=0;exitDy=0;entryX=0.5;entryY=1;entryDx=0;entryDy=0;" edge="1" parent="WIyWlLk6GJQsqaUBKTNV-1" source="JfCPqrpS5iiKMBhqP7LI-38" target="JfCPqrpS5iiKMBhqP7LI-73">
          <mxGeometry relative="1" as="geometry" />
        </mxCell>
        <mxCell id="JfCPqrpS5iiKMBhqP7LI-38" value="Is this movie available" style="rhombus;whiteSpace=wrap;html=1;" vertex="1" parent="WIyWlLk6GJQsqaUBKTNV-1">
          <mxGeometry x="875" y="1920" width="110" height="84.71" as="geometry" />
        </mxCell>
        <mxCell id="JfCPqrpS5iiKMBhqP7LI-39" value="&lt;font style=&quot;font-size: 10px&quot;&gt;No&lt;/font&gt;" style="text;html=1;strokeColor=none;fillColor=none;align=center;verticalAlign=middle;whiteSpace=wrap;rounded=0;" vertex="1" parent="WIyWlLk6GJQsqaUBKTNV-1">
          <mxGeometry x="980" y="1962.3600000000001" width="40" height="20" as="geometry" />
        </mxCell>
        <mxCell id="JfCPqrpS5iiKMBhqP7LI-40" style="edgeStyle=orthogonalEdgeStyle;rounded=0;orthogonalLoop=1;jettySize=auto;html=1;exitX=0.5;exitY=1;exitDx=0;exitDy=0;" edge="1" parent="WIyWlLk6GJQsqaUBKTNV-1" source="JfCPqrpS5iiKMBhqP7LI-41" target="JfCPqrpS5iiKMBhqP7LI-45">
          <mxGeometry relative="1" as="geometry" />
        </mxCell>
        <mxCell id="JfCPqrpS5iiKMBhqP7LI-41" value="Check-out" style="rounded=1;whiteSpace=wrap;html=1;fontSize=12;glass=0;strokeWidth=1;shadow=0;" vertex="1" parent="WIyWlLk6GJQsqaUBKTNV-1">
          <mxGeometry x="720" y="1942.3600000000001" width="120" height="40" as="geometry" />
        </mxCell>
        <mxCell id="JfCPqrpS5iiKMBhqP7LI-42" value="&lt;span style=&quot;font-size: 10px&quot;&gt;Yes&lt;/span&gt;" style="text;html=1;strokeColor=none;fillColor=none;align=center;verticalAlign=middle;whiteSpace=wrap;rounded=0;" vertex="1" parent="WIyWlLk6GJQsqaUBKTNV-1">
          <mxGeometry x="840" y="1936" width="40" height="20" as="geometry" />
        </mxCell>
        <mxCell id="JfCPqrpS5iiKMBhqP7LI-43" style="edgeStyle=orthogonalEdgeStyle;rounded=0;orthogonalLoop=1;jettySize=auto;html=1;exitX=0;exitY=0.5;exitDx=0;exitDy=0;entryX=0.5;entryY=0;entryDx=0;entryDy=0;" edge="1" parent="WIyWlLk6GJQsqaUBKTNV-1" source="JfCPqrpS5iiKMBhqP7LI-45" target="JfCPqrpS5iiKMBhqP7LI-47">
          <mxGeometry relative="1" as="geometry" />
        </mxCell>
        <mxCell id="JfCPqrpS5iiKMBhqP7LI-44" style="edgeStyle=orthogonalEdgeStyle;rounded=0;orthogonalLoop=1;jettySize=auto;html=1;exitX=1;exitY=0.5;exitDx=0;exitDy=0;entryX=0.5;entryY=0;entryDx=0;entryDy=0;" edge="1" parent="WIyWlLk6GJQsqaUBKTNV-1" source="JfCPqrpS5iiKMBhqP7LI-45" target="JfCPqrpS5iiKMBhqP7LI-49">
          <mxGeometry relative="1" as="geometry" />
        </mxCell>
        <mxCell id="JfCPqrpS5iiKMBhqP7LI-45" value="Choose payment method" style="rounded=1;whiteSpace=wrap;html=1;fontSize=12;glass=0;strokeWidth=1;shadow=0;" vertex="1" parent="WIyWlLk6GJQsqaUBKTNV-1">
          <mxGeometry x="720" y="2025" width="120" height="40" as="geometry" />
        </mxCell>
        <mxCell id="JfCPqrpS5iiKMBhqP7LI-46" style="edgeStyle=orthogonalEdgeStyle;rounded=0;orthogonalLoop=1;jettySize=auto;html=1;exitX=0;exitY=0.5;exitDx=0;exitDy=0;entryX=1;entryY=0.5;entryDx=0;entryDy=0;" edge="1" parent="WIyWlLk6GJQsqaUBKTNV-1" source="JfCPqrpS5iiKMBhqP7LI-47" target="JfCPqrpS5iiKMBhqP7LI-53">
          <mxGeometry relative="1" as="geometry" />
        </mxCell>
        <mxCell id="JfCPqrpS5iiKMBhqP7LI-47" value="Credit Card" style="rounded=1;whiteSpace=wrap;html=1;fontSize=12;glass=0;strokeWidth=1;shadow=0;" vertex="1" parent="WIyWlLk6GJQsqaUBKTNV-1">
          <mxGeometry x="550" y="2080" width="120" height="40" as="geometry" />
        </mxCell>
        <mxCell id="JfCPqrpS5iiKMBhqP7LI-48" style="edgeStyle=orthogonalEdgeStyle;rounded=0;orthogonalLoop=1;jettySize=auto;html=1;exitX=0.5;exitY=1;exitDx=0;exitDy=0;" edge="1" parent="WIyWlLk6GJQsqaUBKTNV-1" source="JfCPqrpS5iiKMBhqP7LI-49" target="JfCPqrpS5iiKMBhqP7LI-77">
          <mxGeometry relative="1" as="geometry" />
        </mxCell>
        <mxCell id="JfCPqrpS5iiKMBhqP7LI-49" value="Cash" style="rounded=1;whiteSpace=wrap;html=1;fontSize=12;glass=0;strokeWidth=1;shadow=0;" vertex="1" parent="WIyWlLk6GJQsqaUBKTNV-1">
          <mxGeometry x="880" y="2080" width="120" height="40" as="geometry" />
        </mxCell>
        <mxCell id="JfCPqrpS5iiKMBhqP7LI-50" value="End" style="strokeWidth=2;html=1;shape=mxgraph.flowchart.start_1;whiteSpace=wrap;" vertex="1" parent="WIyWlLk6GJQsqaUBKTNV-1">
          <mxGeometry x="910" y="2310" width="60" height="30" as="geometry" />
        </mxCell>
        <mxCell id="JfCPqrpS5iiKMBhqP7LI-51" value="Start" style="strokeWidth=2;html=1;shape=mxgraph.flowchart.start_1;whiteSpace=wrap;" vertex="1" parent="WIyWlLk6GJQsqaUBKTNV-1">
          <mxGeometry x="925" y="1400" width="70" height="40" as="geometry" />
        </mxCell>
        <mxCell id="JfCPqrpS5iiKMBhqP7LI-52" style="edgeStyle=orthogonalEdgeStyle;rounded=0;orthogonalLoop=1;jettySize=auto;html=1;exitX=0.5;exitY=1;exitDx=0;exitDy=0;entryX=0.5;entryY=0;entryDx=0;entryDy=0;" edge="1" parent="WIyWlLk6GJQsqaUBKTNV-1" source="JfCPqrpS5iiKMBhqP7LI-53" target="JfCPqrpS5iiKMBhqP7LI-56">
          <mxGeometry relative="1" as="geometry" />
        </mxCell>
        <mxCell id="JfCPqrpS5iiKMBhqP7LI-53" value="Insert password" style="rounded=1;whiteSpace=wrap;html=1;fontSize=12;glass=0;strokeWidth=1;shadow=0;" vertex="1" parent="WIyWlLk6GJQsqaUBKTNV-1">
          <mxGeometry x="390" y="2080" width="120" height="40" as="geometry" />
        </mxCell>
        <mxCell id="JfCPqrpS5iiKMBhqP7LI-54" style="edgeStyle=orthogonalEdgeStyle;rounded=0;orthogonalLoop=1;jettySize=auto;html=1;exitX=1;exitY=0.5;exitDx=0;exitDy=0;entryX=0;entryY=0.5;entryDx=0;entryDy=0;" edge="1" parent="WIyWlLk6GJQsqaUBKTNV-1" source="JfCPqrpS5iiKMBhqP7LI-56" target="JfCPqrpS5iiKMBhqP7LI-60">
          <mxGeometry relative="1" as="geometry" />
        </mxCell>
        <mxCell id="JfCPqrpS5iiKMBhqP7LI-55" style="edgeStyle=orthogonalEdgeStyle;rounded=0;orthogonalLoop=1;jettySize=auto;html=1;exitX=0;exitY=0.5;exitDx=0;exitDy=0;entryX=0.5;entryY=1;entryDx=0;entryDy=0;" edge="1" parent="WIyWlLk6GJQsqaUBKTNV-1" source="JfCPqrpS5iiKMBhqP7LI-56" target="JfCPqrpS5iiKMBhqP7LI-75">
          <mxGeometry relative="1" as="geometry" />
        </mxCell>
        <mxCell id="JfCPqrpS5iiKMBhqP7LI-56" value="Correct password" style="rhombus;whiteSpace=wrap;html=1;" vertex="1" parent="WIyWlLk6GJQsqaUBKTNV-1">
          <mxGeometry x="395" y="2150" width="110" height="84.71" as="geometry" />
        </mxCell>
        <mxCell id="JfCPqrpS5iiKMBhqP7LI-57" value="&lt;font style=&quot;font-size: 10px&quot;&gt;No&lt;/font&gt;" style="text;html=1;strokeColor=none;fillColor=none;align=center;verticalAlign=middle;whiteSpace=wrap;rounded=0;" vertex="1" parent="WIyWlLk6GJQsqaUBKTNV-1">
          <mxGeometry x="325" y="2190" width="40" height="20" as="geometry" />
        </mxCell>
        <mxCell id="JfCPqrpS5iiKMBhqP7LI-59" style="edgeStyle=orthogonalEdgeStyle;rounded=0;orthogonalLoop=1;jettySize=auto;html=1;exitX=1;exitY=0.5;exitDx=0;exitDy=0;" edge="1" parent="WIyWlLk6GJQsqaUBKTNV-1" source="JfCPqrpS5iiKMBhqP7LI-60" target="JfCPqrpS5iiKMBhqP7LI-77">
          <mxGeometry relative="1" as="geometry" />
        </mxCell>
        <mxCell id="JfCPqrpS5iiKMBhqP7LI-83" style="edgeStyle=orthogonalEdgeStyle;rounded=0;orthogonalLoop=1;jettySize=auto;html=1;exitX=0.5;exitY=1;exitDx=0;exitDy=0;entryX=0;entryY=0.5;entryDx=0;entryDy=0;" edge="1" parent="WIyWlLk6GJQsqaUBKTNV-1" source="JfCPqrpS5iiKMBhqP7LI-60" target="JfCPqrpS5iiKMBhqP7LI-78">
          <mxGeometry relative="1" as="geometry">
            <Array as="points">
              <mxPoint x="605" y="2255" />
              <mxPoint x="190" y="2255" />
              <mxPoint x="190" y="1995" />
            </Array>
          </mxGeometry>
        </mxCell>
        <mxCell id="JfCPqrpS5iiKMBhqP7LI-60" value="Transaction Accepted" style="rhombus;whiteSpace=wrap;html=1;" vertex="1" parent="WIyWlLk6GJQsqaUBKTNV-1">
          <mxGeometry x="550" y="2150" width="110" height="84.71" as="geometry" />
        </mxCell>
        <mxCell id="JfCPqrpS5iiKMBhqP7LI-61" value="&lt;span style=&quot;font-size: 10px&quot;&gt;Yes&lt;/span&gt;" style="text;html=1;strokeColor=none;fillColor=none;align=center;verticalAlign=middle;whiteSpace=wrap;rounded=0;" vertex="1" parent="WIyWlLk6GJQsqaUBKTNV-1">
          <mxGeometry x="505" y="2170" width="40" height="20" as="geometry" />
        </mxCell>
        <mxCell id="JfCPqrpS5iiKMBhqP7LI-62" value="&lt;font style=&quot;font-size: 10px&quot;&gt;No&lt;/font&gt;" style="text;html=1;strokeColor=none;fillColor=none;align=center;verticalAlign=middle;whiteSpace=wrap;rounded=0;" vertex="1" parent="WIyWlLk6GJQsqaUBKTNV-1">
          <mxGeometry x="600" y="2234.71" width="40" height="20" as="geometry" />
        </mxCell>
        <mxCell id="JfCPqrpS5iiKMBhqP7LI-63" style="edgeStyle=orthogonalEdgeStyle;rounded=0;orthogonalLoop=1;jettySize=auto;html=1;exitX=0;exitY=0.5;exitDx=0;exitDy=0;entryX=0.5;entryY=0;entryDx=0;entryDy=0;" edge="1" parent="WIyWlLk6GJQsqaUBKTNV-1" source="JfCPqrpS5iiKMBhqP7LI-64" target="JfCPqrpS5iiKMBhqP7LI-9">
          <mxGeometry relative="1" as="geometry">
            <Array as="points">
              <mxPoint x="1280" y="1640" />
            </Array>
          </mxGeometry>
        </mxCell>
        <mxCell id="JfCPqrpS5iiKMBhqP7LI-64" value="&lt;font style=&quot;font-size: 10px&quot;&gt;Display &quot;username&lt;br&gt;unavailable&quot; message&lt;/font&gt;" style="shape=parallelogram;html=1;strokeWidth=2;perimeter=parallelogramPerimeter;whiteSpace=wrap;rounded=1;arcSize=12;size=0.23;" vertex="1" parent="WIyWlLk6GJQsqaUBKTNV-1">
          <mxGeometry x="1340" y="1610" width="165" height="60" as="geometry" />
        </mxCell>
        <mxCell id="JfCPqrpS5iiKMBhqP7LI-65" value="&lt;font style=&quot;font-size: 10px&quot;&gt;Display &quot;Password didn&#39;t&lt;br&gt;match&quot; message&lt;/font&gt;" style="shape=parallelogram;html=1;strokeWidth=2;perimeter=parallelogramPerimeter;whiteSpace=wrap;rounded=1;arcSize=12;size=0.23;" vertex="1" parent="WIyWlLk6GJQsqaUBKTNV-1">
          <mxGeometry x="1130" y="1916" width="165" height="60" as="geometry" />
        </mxCell>
        <mxCell id="JfCPqrpS5iiKMBhqP7LI-66" style="edgeStyle=orthogonalEdgeStyle;rounded=0;orthogonalLoop=1;jettySize=auto;html=1;exitX=0;exitY=0.5;exitDx=0;exitDy=0;strokeColor=#000000;" edge="1" parent="WIyWlLk6GJQsqaUBKTNV-1" source="JfCPqrpS5iiKMBhqP7LI-20" target="JfCPqrpS5iiKMBhqP7LI-65">
          <mxGeometry relative="1" as="geometry">
            <mxPoint x="1430" y="1836" as="targetPoint" />
            <Array as="points">
              <mxPoint x="1210" y="2060" />
            </Array>
            <mxPoint x="1380" y="2060" as="sourcePoint" />
          </mxGeometry>
        </mxCell>
        <mxCell id="JfCPqrpS5iiKMBhqP7LI-67" value="&lt;font style=&quot;font-size: 10px&quot;&gt;Display &quot;You&#39;ve successfully&lt;br&gt;signed up&quot; message&lt;/font&gt;" style="shape=parallelogram;html=1;strokeWidth=2;perimeter=parallelogramPerimeter;whiteSpace=wrap;rounded=1;arcSize=12;size=0.23;" vertex="1" parent="WIyWlLk6GJQsqaUBKTNV-1">
          <mxGeometry x="1140" y="1540" width="195" height="60" as="geometry" />
        </mxCell>
        <mxCell id="JfCPqrpS5iiKMBhqP7LI-68" style="edgeStyle=orthogonalEdgeStyle;rounded=0;orthogonalLoop=1;jettySize=auto;html=1;exitX=1;exitY=0.5;exitDx=0;exitDy=0;" edge="1" parent="WIyWlLk6GJQsqaUBKTNV-1" source="JfCPqrpS5iiKMBhqP7LI-20" target="JfCPqrpS5iiKMBhqP7LI-67">
          <mxGeometry relative="1" as="geometry">
            <mxPoint x="960" y="1570" as="targetPoint" />
            <mxPoint x="1480" y="2060" as="sourcePoint" />
            <Array as="points">
              <mxPoint x="1590" y="2060" />
              <mxPoint x="1590" y="1570" />
            </Array>
          </mxGeometry>
        </mxCell>
        <mxCell id="JfCPqrpS5iiKMBhqP7LI-69" value="&lt;b&gt;CCT COLLEGE&lt;/b&gt;&lt;br&gt;&lt;br&gt;&lt;b&gt;OOC + SAAD CA&lt;/b&gt;&lt;br&gt;&lt;br&gt;&lt;b&gt;Matheus Barbosa 2019378&lt;/b&gt;&lt;br&gt;&lt;br&gt;&lt;b&gt;Farley Reis &lt;br&gt;2019334&lt;/b&gt;" style="text;html=1;strokeColor=none;fillColor=none;align=center;verticalAlign=middle;whiteSpace=wrap;rounded=0;" vertex="1" parent="WIyWlLk6GJQsqaUBKTNV-1">
          <mxGeometry x="890" y="1110" width="150" height="220" as="geometry" />
        </mxCell>
        <mxCell id="JfCPqrpS5iiKMBhqP7LI-70" style="edgeStyle=orthogonalEdgeStyle;rounded=0;orthogonalLoop=1;jettySize=auto;html=1;exitX=0.5;exitY=0;exitDx=0;exitDy=0;entryX=0.25;entryY=0;entryDx=0;entryDy=0;" edge="1" parent="WIyWlLk6GJQsqaUBKTNV-1" source="JfCPqrpS5iiKMBhqP7LI-71" target="JfCPqrpS5iiKMBhqP7LI-27">
          <mxGeometry relative="1" as="geometry" />
        </mxCell>
        <mxCell id="JfCPqrpS5iiKMBhqP7LI-71" value="&lt;font style=&quot;font-size: 10px&quot;&gt;Display &quot;Username or &lt;br&gt;Password Incorrect&quot;&lt;br&gt;message&lt;/font&gt;" style="shape=parallelogram;html=1;strokeWidth=2;perimeter=parallelogramPerimeter;whiteSpace=wrap;rounded=1;arcSize=12;size=0.23;" vertex="1" parent="WIyWlLk6GJQsqaUBKTNV-1">
          <mxGeometry x="522.5" y="1758.35" width="165" height="60" as="geometry" />
        </mxCell>
        <mxCell id="JfCPqrpS5iiKMBhqP7LI-72" style="edgeStyle=orthogonalEdgeStyle;rounded=0;orthogonalLoop=1;jettySize=auto;html=1;exitX=0.5;exitY=0;exitDx=0;exitDy=0;entryX=0.75;entryY=0;entryDx=0;entryDy=0;" edge="1" parent="WIyWlLk6GJQsqaUBKTNV-1" source="JfCPqrpS5iiKMBhqP7LI-73" target="JfCPqrpS5iiKMBhqP7LI-34">
          <mxGeometry relative="1" as="geometry" />
        </mxCell>
        <mxCell id="JfCPqrpS5iiKMBhqP7LI-73" value="&lt;font style=&quot;font-size: 10px&quot;&gt;Display &quot;This movie is&lt;br&gt;unavailable at the moment&quot;&lt;br&gt;message&lt;/font&gt;" style="shape=parallelogram;html=1;strokeWidth=2;perimeter=parallelogramPerimeter;whiteSpace=wrap;rounded=1;arcSize=12;size=0.23;" vertex="1" parent="WIyWlLk6GJQsqaUBKTNV-1">
          <mxGeometry x="1010" y="1860" width="165" height="60" as="geometry" />
        </mxCell>
        <mxCell id="JfCPqrpS5iiKMBhqP7LI-74" style="edgeStyle=orthogonalEdgeStyle;rounded=0;orthogonalLoop=1;jettySize=auto;html=1;exitX=0.5;exitY=0;exitDx=0;exitDy=0;entryX=0.5;entryY=0;entryDx=0;entryDy=0;" edge="1" parent="WIyWlLk6GJQsqaUBKTNV-1" source="JfCPqrpS5iiKMBhqP7LI-75" target="JfCPqrpS5iiKMBhqP7LI-53">
          <mxGeometry relative="1" as="geometry" />
        </mxCell>
        <mxCell id="JfCPqrpS5iiKMBhqP7LI-75" value="&lt;font style=&quot;font-size: 10px&quot;&gt;Display &quot;Incorrect&lt;br&gt;Password&quot; message&lt;/font&gt;" style="shape=parallelogram;html=1;strokeWidth=2;perimeter=parallelogramPerimeter;whiteSpace=wrap;rounded=1;arcSize=12;size=0.23;" vertex="1" parent="WIyWlLk6GJQsqaUBKTNV-1">
          <mxGeometry x="200" y="2110" width="165" height="60" as="geometry" />
        </mxCell>
        <mxCell id="JfCPqrpS5iiKMBhqP7LI-76" style="edgeStyle=orthogonalEdgeStyle;rounded=0;orthogonalLoop=1;jettySize=auto;html=1;exitX=0.5;exitY=1;exitDx=0;exitDy=0;" edge="1" parent="WIyWlLk6GJQsqaUBKTNV-1" source="JfCPqrpS5iiKMBhqP7LI-77" target="JfCPqrpS5iiKMBhqP7LI-50">
          <mxGeometry relative="1" as="geometry" />
        </mxCell>
        <mxCell id="JfCPqrpS5iiKMBhqP7LI-77" value="&lt;font style=&quot;font-size: 10px&quot;&gt;Display &quot;Payment Succeed - &lt;br&gt;Enjoy the movie&quot; message&lt;/font&gt;" style="shape=parallelogram;html=1;strokeWidth=2;perimeter=parallelogramPerimeter;whiteSpace=wrap;rounded=1;arcSize=12;size=0.23;" vertex="1" parent="WIyWlLk6GJQsqaUBKTNV-1">
          <mxGeometry x="845" y="2162.35" width="190" height="60" as="geometry" />
        </mxCell>
        <mxCell id="JfCPqrpS5iiKMBhqP7LI-82" style="edgeStyle=orthogonalEdgeStyle;rounded=0;orthogonalLoop=1;jettySize=auto;html=1;exitX=1;exitY=0.5;exitDx=0;exitDy=0;" edge="1" parent="WIyWlLk6GJQsqaUBKTNV-1" source="JfCPqrpS5iiKMBhqP7LI-78">
          <mxGeometry relative="1" as="geometry">
            <mxPoint x="779.9999999999998" y="1994.8965517241381" as="targetPoint" />
          </mxGeometry>
        </mxCell>
        <mxCell id="JfCPqrpS5iiKMBhqP7LI-78" value="&lt;font style=&quot;font-size: 10px&quot;&gt;Display &quot;Transaction&lt;br&gt;declined&quot; message&lt;/font&gt;" style="shape=parallelogram;html=1;strokeWidth=2;perimeter=parallelogramPerimeter;whiteSpace=wrap;rounded=1;arcSize=12;size=0.23;" vertex="1" parent="WIyWlLk6GJQsqaUBKTNV-1">
          <mxGeometry x="367.5" y="1965" width="165" height="60" as="geometry" />
        </mxCell>
      </root>
    </mxGraphModel>
  </diagram>
</mxfile>
